<svg width="35" height="35" viewBox="0 0 35 35" fill="none" xmlns="http://www.w3.org/2000/svg">
<g clip-path="url(#clip0_8_109)">
<path d="M25.06 9.57906L14.3566 14.1805C14.163 14.2789 14.0066 14.4353 13.907 14.63L9.00375 24.5153C8.8025 24.9091 8.87578 25.3881 9.18531 25.7042C9.38328 25.9055 9.65125 26.0127 9.92141 26.0127C10.0734 26.0127 10.2266 25.9798 10.3698 25.9098L20.8195 21.5698C21.0109 21.478 21.1695 21.3281 21.2712 21.1422L26.4283 10.9944C26.6481 10.5973 26.5825 10.1052 26.2697 9.77922C25.9547 9.45328 25.4636 9.37344 25.0611 9.57797L25.06 9.57906ZM12.2314 22.7237L15.2053 16.6502L18.2088 20.4094L12.2314 22.7237ZM19.985 19.1275L16.9498 15.3289L22.9928 12.9445L19.985 19.1275ZM17.5 0C7.83562 0 0 7.83453 0 17.5C0 27.1655 7.83453 35 17.5 35C27.1655 35 35 27.1655 35 17.5C35 7.83453 27.1655 0 17.5 0ZM17.5 32.8475C9.05625 32.8475 2.1875 25.9438 2.1875 17.5C2.1875 9.05625 9.05625 2.1875 17.5 2.1875C25.9438 2.1875 32.8125 9.05625 32.8125 17.5C32.8125 25.9438 25.9438 32.8475 17.5 32.8475Z" fill="#F6F1F1"/>
</g>
<defs>
<clipPath id="clip0_8_109">
<rect width="35" height="35" fill="white"/>
</clipPath>
</defs>
</svg>
