<svg width="50" height="50" viewBox="0 0 50 50" fill="none" xmlns="http://www.w3.org/2000/svg">
<path d="M24.9998 4.24994C13.5415 4.24994 4.1665 13.6041 4.1665 25.125C4.1665 35.5416 11.7915 44.1875 21.7498 45.75V31.1666H16.4582V25.125H21.7498V20.5208C21.7498 15.2916 24.854 12.4166 29.6248 12.4166C31.8957 12.4166 34.2707 12.8124 34.2707 12.8124V17.9583H31.6457C29.0623 17.9583 28.2498 19.5624 28.2498 21.2083V25.125H34.0415L33.104 31.1666H28.2498V45.75C33.159 44.9746 37.6294 42.4698 40.8538 38.6875C44.0782 34.9054 45.8444 30.095 45.8332 25.125C45.8332 13.6041 36.4582 4.24994 24.9998 4.24994Z" fill="#146C94"/>
</svg>
