<svg width="45" height="46" viewBox="0 0 45 46" fill="none" xmlns="http://www.w3.org/2000/svg">
<g clip-path="url(#clip0_63_117)">
<path d="M22.5 0.946289C10.0723 0.946289 0 11.0186 0 23.4463C0 35.874 10.0723 45.9463 22.5 45.9463C34.9277 45.9463 45 35.874 45 23.4463C45 11.0186 34.9277 0.946289 22.5 0.946289ZM36.5449 37.4824C34.7168 39.3105 32.5986 40.7432 30.2344 41.7363C27.791 42.7734 25.1895 43.292 22.5 43.292C19.8193 43.292 17.2178 42.7646 14.7656 41.7363C12.4014 40.7344 10.2744 39.3018 8.45508 37.4824C6.62695 35.6543 5.19434 33.5361 4.20117 31.1719C3.16406 28.7285 2.63672 26.127 2.63672 23.4463C2.63672 20.7656 3.16406 18.1641 4.19238 15.7119C5.19434 13.3477 6.62695 11.2207 8.44629 9.40137C10.2832 7.57324 12.4014 6.14062 14.7656 5.13867C17.2178 4.11035 19.8193 3.58301 22.5 3.58301C25.1807 3.58301 27.7822 4.11035 30.2344 5.13867C32.5986 6.14062 34.7256 7.57324 36.5449 9.39258C38.373 11.2207 39.8057 13.3389 40.7988 15.7031C41.8359 18.1465 42.3545 20.748 42.3545 23.4375C42.3545 26.1182 41.8271 28.7197 40.7988 31.1719C39.7969 33.5361 38.3643 35.6631 36.5449 37.4824Z" fill="white"/>
<path d="M25.4707 15.7734C26.376 15.7734 27.3428 16.0547 27.3428 16.0547L27.9229 12.6094C27.9229 12.6094 26.6924 12.1875 23.7568 12.1875C21.9551 12.1875 20.9092 12.873 20.1445 13.8838C19.4238 14.8418 19.3975 16.3799 19.3975 17.373V19.6318H17.0684V22.998H19.3975V34.6875H23.7568V22.998H27.2109L27.4658 19.6318H23.7568V17.0039C23.7568 16.0986 24.5654 15.7734 25.4707 15.7734Z" fill="white"/>
</g>
<defs>
<clipPath id="clip0_63_117">
<rect width="45" height="45" fill="white" transform="translate(0 0.946289)"/>
</clipPath>
</defs>
</svg>
