<svg width="22" height="20" viewBox="0 0 22 20" fill="none" xmlns="http://www.w3.org/2000/svg">
<g clip-path="url(#clip0_14_228)">
<path fill-rule="evenodd" clip-rule="evenodd" d="M11.36 0C17.1923 0 21.92 4.58993 21.92 10.2529C21.92 14.7819 18.8978 18.624 14.7044 19.981C14.169 20.082 13.9789 19.7618 13.9789 19.4888C13.9789 19.1508 13.9916 18.0468 13.9916 16.6748C13.9916 15.7188 13.6537 15.0949 13.2746 14.7769C15.6263 14.5229 18.0973 13.6558 18.0973 9.71777C18.0973 8.59777 17.6876 7.68382 17.0096 6.96582C17.1195 6.70682 17.4817 5.66395 16.9062 4.25195C16.9062 4.25195 16.0212 3.97722 14.0053 5.30322C13.1616 5.07622 12.2576 4.96201 11.36 4.95801C10.4624 4.96201 9.55957 5.07622 8.71688 5.30322C6.69887 3.97722 5.81183 4.25195 5.81183 4.25195C5.23842 5.66395 5.60063 6.70682 5.70939 6.96582C5.03461 7.68382 4.62172 8.59777 4.62172 9.71777C4.62172 13.6458 7.08748 14.5262 9.43285 14.7852C9.13084 15.0412 8.85733 15.4928 8.76229 16.1558C8.16037 16.4178 6.63128 16.8712 5.68933 15.3042C5.68933 15.3042 5.1307 14.3191 4.07048 14.2471C4.07048 14.2471 3.04088 14.2341 3.99867 14.8701C3.99867 14.8701 4.69035 15.1851 5.17083 16.3701C5.17083 16.3701 5.79071 18.2001 8.7285 17.5801C8.73378 18.4371 8.74328 19.2448 8.74328 19.4888C8.74328 19.7598 8.54897 20.0769 8.02203 19.9819C3.82549 18.6269 0.800049 14.7829 0.800049 10.2529C0.800049 4.58993 5.52882 0 11.36 0Z" fill="#146C94"/>
</g>
<defs>
<clipPath id="clip0_14_228">
<rect width="21.12" height="20" fill="white" transform="translate(0.800049)"/>
</clipPath>
</defs>
</svg>
