<svg width="45" height="46" viewBox="0 0 45 46" fill="none" xmlns="http://www.w3.org/2000/svg">
<g clip-path="url(#clip0_65_2)">
<path d="M22.5 0.946289C10.0723 0.946289 0 11.0186 0 23.4463C0 35.874 10.0723 45.9463 22.5 45.9463C34.9277 45.9463 45 35.874 45 23.4463C45 11.0186 34.9277 0.946289 22.5 0.946289ZM36.5449 37.4824C34.7168 39.3105 32.5986 40.7432 30.2344 41.7363C27.791 42.7734 25.1895 43.292 22.5 43.292C19.8193 43.292 17.2178 42.7646 14.7656 41.7363C12.4014 40.7344 10.2744 39.3018 8.45508 37.4824C6.62695 35.6543 5.19434 33.5361 4.20117 31.1719C3.16406 28.7285 2.63672 26.127 2.63672 23.4463C2.63672 20.7656 3.16406 18.1641 4.19238 15.7119C5.19434 13.3477 6.62695 11.2207 8.44629 9.40137C10.2832 7.57324 12.4014 6.14062 14.7656 5.13867C17.2178 4.11035 19.8193 3.58301 22.5 3.58301C25.1807 3.58301 27.7822 4.11035 30.2344 5.13867C32.5986 6.14062 34.7256 7.57324 36.5449 9.39258C38.373 11.2207 39.8057 13.3389 40.7988 15.7031C41.8359 18.1465 42.3545 20.748 42.3545 23.4375C42.3545 26.1182 41.8271 28.7197 40.7988 31.1719C39.7969 33.5361 38.3643 35.6631 36.5449 37.4824Z" fill="white"/>
<path d="M16.207 18.8232H11.8213V32.8594H16.207V18.8232Z" fill="white"/>
<path d="M13.9219 12.1963C12.3047 12.1963 11.2412 13.2422 11.2412 14.6309C11.2412 15.9932 12.2695 17.0654 13.8604 17.0654H13.8955C15.5479 17.0654 16.5762 15.9844 16.5674 14.6309C16.5322 13.2422 15.5391 12.1963 13.9219 12.1963Z" fill="white"/>
<path d="M28.1865 18.6914C25.6729 18.6914 24.0996 20.0625 23.8096 21.0293V18.8232H18.8789C18.9404 19.9922 18.8789 32.8594 18.8789 32.8594H23.8096V25.2744C23.8096 24.8437 23.792 24.4219 23.915 24.123C24.249 23.2793 24.9785 22.4004 26.2881 22.4004C28.002 22.4004 28.7754 23.7012 28.7754 25.5996V32.8594H33.75V25.0547C33.75 20.7129 31.3066 18.6914 28.1865 18.6914Z" fill="white"/>
</g>
<defs>
<clipPath id="clip0_65_2">
<rect width="45" height="45" fill="white" transform="translate(0 0.946289)"/>
</clipPath>
</defs>
</svg>
