<svg width="40" height="40" viewBox="0 0 40 40" fill="none" xmlns="http://www.w3.org/2000/svg">
<path fill-rule="evenodd" clip-rule="evenodd" d="M16.0371 11.3048C16.7576 10.732 16.8775 9.68356 16.3046 8.96305C15.7318 8.24253 14.6833 8.12278 13.9628 8.69561C7.89114 13.5226 6.66663 19.7975 6.66663 26.6669C6.66663 29.4284 8.90521 31.6669 11.6666 31.6669C14.428 31.6669 16.6666 29.4284 16.6666 26.6669C16.6666 23.9055 14.428 21.6669 11.6666 21.6669C11.1872 21.6669 10.7235 21.7344 10.2846 21.8604C10.8603 17.6455 12.4289 14.1734 16.0371 11.3048ZM33.3333 26.6669C33.3333 29.4284 31.0948 31.6669 28.3333 31.6669C25.5718 31.6669 23.3333 29.4284 23.3333 26.6669C23.3333 19.7975 24.5578 13.5226 30.6294 8.69561C31.3499 8.12278 32.3984 8.24253 32.9713 8.96305C33.5441 9.68356 33.4243 10.732 32.7038 11.3048C29.0956 14.1734 27.5269 17.6455 26.9513 21.8604C27.3901 21.7344 27.8538 21.6669 28.3333 21.6669C31.0948 21.6669 33.3333 23.9055 33.3333 26.6669Z" fill="#146C94"/>
</svg>
