<svg width="40" height="40" viewBox="0 0 40 40" fill="none" xmlns="http://www.w3.org/2000/svg">
<g clip-path="url(#clip0_14_389)">
<path d="M6.66666 26.6666C3 26.6666 0 23.6666 0 20C0 16.3333 3 13.3333 6.66666 13.3333C10.3333 13.3333 13.3333 16.3333 13.3333 20C13.3333 23.6666 10.3333 26.6666 6.66666 26.6666ZM6.66666 16.6666C4.83333 16.6666 3.33333 18.1666 3.33333 20C3.33333 21.8333 4.83333 23.3333 6.66666 23.3333C8.5 23.3333 10 21.8333 10 20C10 18.1666 8.5 16.6666 6.66666 16.6666Z" fill="#146C94"/>
<path d="M33.3332 13.3333C29.6665 13.3333 26.6665 10.3333 26.6665 6.66666C26.6665 3 29.6665 0 33.3332 0C36.9998 0 39.9998 3 39.9998 6.66666C39.9998 10.3333 36.9998 13.3333 33.3332 13.3333ZM33.3332 3.33333C31.4998 3.33333 29.9998 4.83333 29.9998 6.66666C29.9998 8.5 31.4998 10 33.3332 10C35.1665 10 36.6665 8.5 36.6665 6.66666C36.6665 4.83333 35.1665 3.33333 33.3332 3.33333Z" fill="#146C94"/>
<path d="M33.3332 40C29.6665 40 26.6665 37 26.6665 33.3333C26.6665 29.6666 29.6665 26.6666 33.3332 26.6666C36.9998 26.6666 39.9998 29.6666 39.9998 33.3333C39.9998 37 36.9998 40 33.3332 40ZM33.3332 30C31.4998 30 29.9998 31.5 29.9998 33.3333C29.9998 35.1666 31.4998 36.6666 33.3332 36.6666C35.1665 36.6666 36.6665 35.1666 36.6665 33.3333C36.6665 31.5 35.1665 30 33.3332 30Z" fill="#146C94"/>
<path d="M29.6891 29.647L11.9502 20.7775L10.4595 23.7589L28.1985 32.6283L29.6891 29.647Z" fill="#146C94"/>
<path d="M29.5405 10.4259L28.0498 7.44452L10.3109 16.314L11.8015 19.2953L29.5405 10.4259Z" fill="#146C94"/>
</g>
<defs>
<clipPath id="clip0_14_389">
<rect width="40" height="40" fill="white"/>
</clipPath>
</defs>
</svg>
