<svg width="32" height="26" viewBox="0 0 32 26" fill="none" xmlns="http://www.w3.org/2000/svg">
<g clip-path="url(#clip0_188_42)">
<path d="M20.8771 2C22.5191 2 24.3821 2.652 25.4261 3.738C26.7241 3.486 27.949 3.025 29.05 2.386C28.625 3.687 27.7181 4.779 26.5401 5.469C27.6931 5.332 28.797 5.035 29.82 4.59C29.054 5.707 28.0871 6.69 26.9711 7.477C26.9811 7.715 26.987 7.955 26.987 8.195C26.987 15.562 21.445 24 10.939 24C7.71505 24 4.50705 23.133 1.98205 21.551C2.42805 21.605 2.88305 21.631 3.34305 21.631C6.01905 21.631 8.48205 20.74 10.439 19.242C7.93705 19.199 5.82705 17.586 5.10305 15.373C5.45005 15.437 5.81005 15.473 6.17805 15.473C6.69605 15.473 7.20305 15.406 7.68105 15.277C5.06805 14.768 3.10005 12.514 3.10005 9.813C3.10005 9.787 3.10005 9.764 3.10005 9.74C3.87105 10.158 4.75005 10.41 5.68705 10.44C4.15405 9.437 3.14705 7.734 3.14705 5.799C3.14705 4.777 3.42805 3.818 3.91905 2.998C6.73505 6.367 10.945 8.588 15.693 8.822C15.594 8.414 15.543 7.984 15.543 7.553C15.543 4.473 17.7211 2 20.8771 2ZM29.82 4.59H29.8251ZM20.8771 0C17.0331 0 14.06 2.753 13.614 6.552C10.4251 5.905 7.52405 4.204 5.44005 1.711C5.06105 1.257 4.50305 0.998 3.91905 0.998C3.86705 0.998 3.81505 1 3.76305 1.004C3.12305 1.055 2.54705 1.413 2.21605 1.966C1.52505 3.122 1.15905 4.447 1.15905 5.799C1.15905 6.7 1.32105 7.579 1.62505 8.4C1.30005 8.762 1.11305 9.238 1.11305 9.74V9.813C1.11305 11.772 1.88205 13.589 3.16005 14.952C3.08705 15.294 3.10305 15.655 3.21505 15.998C3.65705 17.348 4.45905 18.51 5.49905 19.396C4.80005 19.552 4.07905 19.631 3.34305 19.631C2.95405 19.631 2.57705 19.609 2.22205 19.565C2.14105 19.556 2.06105 19.551 1.98105 19.551C1.14805 19.551 0.391049 20.078 0.108049 20.886C-0.201951 21.77 0.140049 22.753 0.932049 23.249C3.76405 25.023 7.31805 26 10.939 26C17.778 26 22.025 22.843 24.383 20.195C27.243 16.984 28.907 12.718 28.972 8.455C29.899 7.682 30.717 6.79 31.41 5.792C31.661 5.458 31.81 5.041 31.81 4.59C31.81 3.909 31.473 3.308 30.958 2.946C31.181 2.176 30.925 1.342 30.303 0.833C29.94 0.537 29.496 0.386 29.049 0.386C28.708 0.386 28.365 0.474 28.056 0.654C27.391 1.04 26.68 1.344 25.931 1.562C24.555 0.592 22.6881 0 20.8771 0Z" fill="#146C94"/>
</g>
<defs>
<clipPath id="clip0_188_42">
<rect width="31.812" height="26" fill="white"/>
</clipPath>
</defs>
</svg>
