<svg width="42" height="42" viewBox="0 0 42 42" fill="none" xmlns="http://www.w3.org/2000/svg">
<path d="M21 0C9.40078 0 0 9.40078 0 21C0 32.5992 9.40078 42 21 42C32.5992 42 42 32.5992 42 21C42 9.40078 32.5992 0 21 0ZM29.3836 17.7352C29.3918 17.9156 29.3918 18.1043 29.3918 18.293C29.3918 23.9941 25.0523 30.573 17.1117 30.573C14.6754 30.573 12.4031 29.8594 10.5 28.6371C10.8363 28.6781 11.1809 28.6945 11.5336 28.6945C13.5516 28.6945 15.4137 28.0055 16.8902 26.8488C15.0035 26.816 13.4039 25.5691 12.8625 23.8547C13.125 23.9039 13.3957 23.9285 13.6746 23.9285C14.0684 23.9285 14.4539 23.8793 14.8148 23.7727C12.8379 23.3789 11.3531 21.6316 11.3531 19.5398V19.4906C11.9355 19.8105 12.6 20.0074 13.3055 20.032C12.1488 19.2609 11.3859 17.932 11.3859 16.4391C11.3859 15.6516 11.5992 14.9051 11.9684 14.2652C14.1012 16.882 17.2758 18.5965 20.8605 18.777C20.7867 18.4652 20.7457 18.1371 20.7457 17.7926C20.7457 15.4137 22.6816 13.4777 25.0605 13.4777C26.2992 13.4777 27.423 14.0027 28.2105 14.8395C29.1949 14.6426 30.1137 14.2898 30.9504 13.7895C30.6305 14.7984 29.9414 15.6434 29.0555 16.1766C29.925 16.0699 30.7617 15.8402 31.5328 15.4957C30.9586 16.3652 30.2285 17.1199 29.3836 17.7352Z" fill="#146C94"/>
</svg>
