<svg width="26" height="24" viewBox="0 0 26 24" fill="none" xmlns="http://www.w3.org/2000/svg">
<path fill-rule="evenodd" clip-rule="evenodd" d="M14.9039 7C14.3207 7 13.8479 7.44772 13.8479 8V16C13.8479 16.5523 14.3207 17 14.9039 17H19.1279C19.7111 17 20.1839 16.5523 20.1839 16V8C20.1839 7.44772 19.7111 7 19.1279 7H14.9039ZM18.0719 9H15.9599V15H18.0719V9Z" fill="#146C94"/>
<path d="M6.4559 7C5.87269 7 5.3999 7.44772 5.3999 8C5.3999 8.55228 5.87269 9 6.4559 9H10.6799C11.2631 9 11.7359 8.55228 11.7359 8C11.7359 7.44772 11.2631 7 10.6799 7H6.4559Z" fill="#146C94"/>
<path d="M6.4559 11C5.87269 11 5.3999 11.4477 5.3999 12C5.3999 12.5523 5.87269 13 6.4559 13H10.6799C11.2631 13 11.7359 12.5523 11.7359 12C11.7359 11.4477 11.2631 11 10.6799 11H6.4559Z" fill="#146C94"/>
<path d="M5.3999 16C5.3999 15.4477 5.87269 15 6.4559 15H10.6799C11.2631 15 11.7359 15.4477 11.7359 16C11.7359 16.5523 11.2631 17 10.6799 17H6.4559C5.87269 17 5.3999 16.5523 5.3999 16Z" fill="#146C94"/>
<path fill-rule="evenodd" clip-rule="evenodd" d="M4.34378 3C2.59415 3 1.17578 4.34315 1.17578 6V18C1.17578 19.6569 2.59415 21 4.34378 21H21.2398C22.9895 21 24.4078 19.6569 24.4078 18V6C24.4078 4.34315 22.9895 3 21.2398 3H4.34378ZM21.2398 5H4.34378C3.76057 5 3.28778 5.44772 3.28778 6V18C3.28778 18.5523 3.76057 19 4.34378 19H21.2398C21.823 19 22.2958 18.5523 22.2958 18V6C22.2958 5.44772 21.823 5 21.2398 5Z" fill="#146C94"/>
</svg>
